<?xml version="1.0" encoding="utf-8"?>
<!-- Generator: Adobe Illustrator 19.2.1, SVG Export Plug-In . SVG Version: 6.00 Build 0)  -->
<svg version="1.1" id="Layer_1" xmlns="http://www.w3.org/2000/svg" xmlns:xlink="http://www.w3.org/1999/xlink" x="0px" y="0px"
	 viewBox="0 0 300 300" style="enable-background:new 0 0 300 300;" xml:space="preserve">
<style type="text/css">
	.st0{fill:#FFFFFF;}
</style>
<g>
	<g>
		<path class="st0" d="M17.4,152.3c9.8,4.3,14.7,13.3,14.7,27V218c0,8.3,1.5,14,4.4,17c2.9,3,8.8,4.5,17.6,4.6v12.3L50,252
			c-12.5,0-21.2-2.6-26.3-7.8c-5.1-5.2-7.6-14-7.6-26.3v-38.6c0-7.2-1.1-12.4-3.4-15.4c-2.3-3-5.7-5.1-10.2-6.3v-11.6
			c4.4-1.1,7.8-3.1,10.2-6.1c2.3-3,3.5-7.9,3.5-14.7V83.9c0-11.5,2.7-19.6,8.1-24.3c5.4-4.8,13.7-7.1,24.8-7.1c1.1,0,2.8,0,5,0.1
			v12.3c-8.8,0.2-14.7,1.8-17.6,4.7c-2.9,2.9-4.4,8.2-4.4,16V126c0,5.2-0.8,10.2-2.4,14.9C28.2,145.6,24.1,149.4,17.4,152.3z"/>
		<path class="st0" d="M279.9,152.1c-9.8-4.3-14.7-13.3-14.7-27V86.5c0-8.3-1.5-14-4.4-17s-8.8-4.5-17.6-4.6V52.5l4-0.1
			c13.1,0,22,2.7,26.8,8c4.8,5.3,7.1,14,7.1,26.1v38.6c0,6.9,1.1,11.8,3.2,15c2.1,3.1,5.6,5.3,10.6,6.7v11.6
			c-4.4,1.1-7.8,3.1-10.2,6.1c-2.4,3-3.6,7.9-3.6,14.7v41.5c0,10.1-2.4,17.9-7.1,23.3c-4.7,5.4-13.3,8.1-25.8,8.1
			c-1.1,0-2.8,0-5-0.1v-12.3c8.7-0.2,14.6-1.8,17.5-4.7c3-2.9,4.4-8.3,4.4-16v-40.5c0-5.5,0.8-10.6,2.5-15.2
			C269.3,158.6,273.3,154.9,279.9,152.1z"/>
	</g>
	<g>
		<path class="st0" d="M75.3,201.7H56.7V90.1h18.6V201.7z"/>
		<path class="st0" d="M116.8,124.6V145H96.6v-20.4H116.8z M116.8,181.3v20.4H96.6v-20.4H116.8z"/>
		<path class="st0" d="M206.5,201.7h-18.6v-54.1c0-5.8-1.2-9.9-3.7-12.3s-5.4-3.6-8.7-3.6c-5.3,0-9.7,2.1-13.3,6.3
			c-3.6,4.2-5.4,11.1-5.4,20.8v42.9H138V90.1h18.6v43.5c4.6-11.9,12.8-17.8,24.4-17.8c17,0,25.4,9.7,25.4,29.2V201.7z"/>
		<path class="st0" d="M248,124.6V145h-20.4v-20.4H248z M248,180.9v18.7l-13.2,26h-7.2l9.7-23.9h-9.7v-20.9H248z"/>
	</g>
</g>
</svg>
